<svg xmlns="http://www.w3.org/2000/svg" width="256" height="256"><path fill="#1976D2" fill-opacity=".133" fill-rule="evenodd" d="M0 128.004v128.004l128.25-.254 128.25-.254.254-127.75L257.008 0H0v128.004m.485.496c0 70.4.119 99.053.265 63.672.146-35.38.146-92.98 0-128C.604 29.153.485 58.1.485 128.5"/><path fill="#1976D2" fill-opacity=".208" fill-rule="evenodd" d="M.102 57.25c.094 52.744.212 56.589 1.51 48.847C4.433 89.26 12.155 70.173 22.283 55 28.6 45.536 46.29 27.878 55.635 21.709 70.036 12.203 85.992 5.504 102.5 2.033l9-1.892L55.75.07 0 0l.102 57.25M151 1.544c55.277 10.057 98.033 56.539 103.902 112.956.531 5.11.88-14.126.965-53.25L256 0l-56.25.09C149.065.171 144.242.314 151 1.544m.57 11.134c-.369.963.037 2.346.954 3.25 1.454 1.43 1.722 1.406 2.968-.275.754-1.016 1.128-2.479.832-3.25-.747-1.947-3.973-1.76-4.754.275m-6.32.542c-1.238.597-2.25 1.467-2.25 1.933 0 1.405 1.642.961 4.139-1.12 2.573-2.143 1.673-2.53-1.889-.813m-48.611 3.474c-.351.352-.639 1.652-.639 2.889 0 1.238-.562 2.451-1.25 2.697-.687.245-.956.764-.597 1.152C95.322 24.698 99 21.577 99 19.318c0-2.305-1.269-3.716-2.361-2.624m64.611 4.98c-3.347 2.335-2.724 3.719.75 1.667 1.65-.975 3-2.125 3-2.557 0-1.162-1.224-.871-3.75.89m-18.246.821c-.682.822-.985 2.469-.673 3.661.311 1.192.079 3.078-.517 4.191-.916 1.712-.588 2.466 2.136 4.9 3.219 2.876 3.219 2.876 1.583 6.326-2.023 4.262-1.381 5.427 2.991 5.427 4.07 0 5.933-2.644 4.966-7.046-.464-2.113-.072-3.733 1.408-5.81 2.046-2.875 2.047-2.884.06-4.682-1.919-1.737-2.042-1.733-3.446.119-.801 1.055-1.257 2.482-1.015 3.169.753 2.138-.999 1.38-3.964-1.715l-2.841-2.965 2.404-2.002c1.322-1.101 1.856-2.016 1.185-2.035-.67-.018-.959-.708-.643-1.533.758-1.975-1.996-1.979-3.634-.005m-9.434 4.183c-.354.922-.016 2.304.75 3.071 1.192 1.192 1.626 1.162 2.995-.207.88-.88 1.346-2.262 1.036-3.071-.769-2.002-3.987-1.863-4.781.207m-27.82.714c-1.818 1.38-2.299 2.624-1 2.586.412-.012 1.875-.902 3.25-1.978 1.646-1.287 1.987-1.952 1-1.946-.825.005-2.287.607-3.25 1.338M93.457 29.07c-1.019 1.649.502 2.798 3.309 2.499C98.27 31.408 99.5 30.702 99.5 30c0-1.496-5.199-2.296-6.043-.93m68.293 1.646c-1.31 1.453-1.75 3.676-1.75 8.835v6.893l2.05-2.049c1.736-1.737 2.004-3.085 1.75-8.835-.289-6.543-.362-6.715-2.05-4.844m-66.071 6.767C93.106 39.949 91 42.408 91 42.948c0 2.444 5.151 3.456 19.663 3.864l15.162.426 1.582-3.059 1.582-3.059-3.744-.31c-2.06-.17-3.608-.76-3.441-1.31.168-.55 1.456-.908 2.863-.796 2.478.197 2.503.141.791-1.75-.972-1.075-2.753-1.954-3.958-1.954-2.285 0-5.5 2.816-5.5 4.818 0 .638-1.093 1.069-2.429.959-1.907-.158-2.564-.927-3.063-3.587-.616-3.284-.693-3.333-2.586-1.62-1.197 1.083-1.726 2.474-1.369 3.598.461 1.451.048 1.832-1.986 1.832-2.328 0-2.567-.372-2.567-4 0-2.2-.369-4-.821-4-.452 0-2.927 2.017-5.5 4.483m37.678-.97c-.32.832-.025 2.182.654 3 1.039 1.252.819 1.487-1.389 1.487-2.247 0-2.622.429-2.622 3 0 2.878.179 3 4.393 3 4.611 0 5.607-.961 5.607-5.407 0-2.065-3.672-6.593-5.346-6.593-.394 0-.978.681-1.297 1.513m-29.97 14.67c-.814 1.316.001 1.926 3.017 2.257 1.419.156 3.089-.329 3.711-1.078 1.299-1.566 1.408-1.495-2.878-1.855-1.794-.151-3.527.153-3.85.676m16.863 1.037c-1.237.597-2.25 1.467-2.25 1.933 0 1.405 1.642.961 4.139-1.12 2.573-2.143 1.673-2.53-1.889-.813M24 64c0 1.911.484 2.077 5.25 1.802 3.866-.222 5.25-.698 5.25-1.802s-1.384-1.58-5.25-1.802C24.484 61.923 24 62.089 24 64m15-.052c0 1.824.619 2.052 5.573 2.052 4.768 0 5.526-.253 5.241-1.75-.257-1.353-1.523-1.819-5.573-2.052-4.717-.272-5.241-.097-5.241 1.75M54 64c0 1.758.667 2 5.5 2s5.5-.242 5.5-2-.667-2-5.5-2-5.5.242-5.5 2m15.667-1.333c-.367.366-.667 1.266-.667 2C69 65.616 70.583 66 74.5 66c4.833 0 5.5-.242 5.5-2 0-1.724-.667-2-4.833-2-2.659 0-5.134.3-5.5.667M84.5 63c-1.216 1.968.697 3 5.559 3C94.333 66 95 65.73 95 64s-.667-2-4.941-2c-2.718 0-5.219.45-5.559 1m15.5 1c0 1.911.484 2.077 5.25 1.802 3.866-.222 5.25-.698 5.25-1.802s-1.384-1.58-5.25-1.802c-4.766-.275-5.25-.109-5.25 1.802m15 0c0 1.911.484 2.077 5.25 1.802 3.866-.222 5.25-.698 5.25-1.802s-1.384-1.58-5.25-1.802c-4.766-.275-5.25-.109-5.25 1.802m15 0c0 1.758.667 2 5.5 2s5.5-.242 5.5-2-.667-2-5.5-2-5.5.242-5.5 2m15.667-1.333c-.367.366-.667 1.266-.667 2 0 .949 1.583 1.333 5.5 1.333 4.833 0 5.5-.242 5.5-2 0-1.724-.667-2-4.833-2-2.659 0-5.134.3-5.5.667M160.5 63c-1.216 1.968.697 3 5.559 3 4.274 0 4.941-.27 4.941-2s-.667-2-4.941-2c-2.718 0-5.219.45-5.559 1m15 0c-1.216 1.968.697 3 5.559 3 4.274 0 4.941-.27 4.941-2s-.667-2-4.941-2c-2.718 0-5.219.45-5.559 1m15.5 1c0 1.911.484 2.077 5.25 1.802 3.866-.222 5.25-.698 5.25-1.802s-1.384-1.58-5.25-1.802c-4.766-.275-5.25-.109-5.25 1.802m15-.052c0 1.824.619 2.052 5.573 2.052 4.768 0 5.526-.253 5.241-1.75-.257-1.353-1.523-1.819-5.573-2.052-4.717-.272-5.241-.097-5.241 1.75M221 64c0 1.758.667 2 5.5 2s5.5-.242 5.5-2-.667-2-5.5-2-5.5.242-5.5 2M105.281 91.498c-5.699 9.719-6.017 10.573-4.284 11.5 3.351 1.794 5.509 1.15 6.697-1.998.864-2.289 1.757-3 3.771-3 2.033 0 2.879.689 3.685 3 .818 2.347 1.641 3 3.781 3 1.505 0 2.994-.258 3.309-.574.653-.652-9.235-22.426-10.185-22.426-.34 0-3.388 4.724-6.774 10.498m77.915.146c-3.433 5.854-6.062 10.823-5.843 11.043.22.219 1.917.644 3.773.945 3.059.495 3.483.258 4.537-2.543 1.636-4.343 5.986-4.395 7.487-.089.818 2.347 1.641 3 3.781 3 1.505 0 2.988-.253 3.297-.561.633-.633-9.278-22.439-10.199-22.439-.325 0-3.401 4.79-6.833 10.644M55.355 83.516c-.571 1.49 1.015 20.266 1.763 20.853.21.166 3.469.023 7.243-.316 6.098-.548 7.181-.976 9.75-3.851 4.243-4.749 4.053-10.238-.511-14.802-3.231-3.231-3.755-3.4-10.531-3.4-5.451 0-7.269.357-7.714 1.516m78.144-.514c-.733 1.185.48 19.386 1.381 20.717.343.507 3.686.649 7.481.317 6.109-.534 7.176-.954 9.75-3.834 4.243-4.749 4.053-10.238-.511-14.802-3.223-3.223-3.767-3.4-10.441-3.4-3.873 0-7.32.451-7.66 1.002m-52.422 3.075C78.553 88.601 78 89.962 78 93.654c0 3.64.558 5.058 2.923 7.423 5.627 5.627 15.906 3.107 17.901-4.39 2.901-10.903-9.838-18.519-17.747-10.61m78 0c-2.524 2.524-3.077 3.885-3.077 7.577 0 3.64.558 5.058 2.923 7.423 5.627 5.627 15.906 3.107 17.901-4.39 2.901-10.903-9.838-18.519-17.747-10.61M61.011 89.25c.006.688.29 2.938.631 5 .572 3.463.876 3.75 3.966 3.75 4.38 0 6.931-3.452 5.443-7.365C70.173 88.324 69.493 88 65.525 88c-2.959 0-4.521.433-4.514 1.25m78 0c.006.688.29 2.938.631 5 .572 3.463.876 3.75 3.966 3.75 4.38 0 6.931-3.452 5.443-7.365-.878-2.311-1.558-2.635-5.526-2.635-2.959 0-4.521.433-4.514 1.25m-52.766.905c-1.69 1.69-1.574 6.327.195 7.795 1.948 1.617 6.613.942 7.921-1.147 1.837-2.935-.369-7.251-3.884-7.598-1.643-.162-3.547.265-4.232.95m78 0c-1.69 1.69-1.574 6.327.195 7.795 1.948 1.617 6.613.942 7.921-1.147 1.837-2.935-.369-7.251-3.884-7.598-1.643-.162-3.547.265-4.232.95M110.638 91.5c-.347.905-.005 1.5.862 1.5s1.209-.595.862-1.5c-.317-.825-.705-1.5-.862-1.5-.157 0-.545.675-.862 1.5m78 0c-.347.905-.005 1.5.862 1.5s1.209-.595.862-1.5c-.317-.825-.705-1.5-.862-1.5-.157 0-.545.675-.862 1.5m-65.461 2.053c.178.854.661 1.529 1.073 1.5.412-.029 2.325-.053 4.25-.053 2.444 0 3.5-.452 3.5-1.5 0-1.115-1.175-1.5-4.573-1.5-3.607 0-4.505.328-4.25 1.553m26.039 31.197.284 10.75 2.882.329c2.633.301 2.838.101 2.376-2.316l-.506-2.646 2.888 2.767c2.718 2.604 2.988 2.667 4.587 1.067 1.6-1.599 1.496-1.875-1.764-4.691l-3.463-2.991 2.368-2.015c1.969-1.676 2.154-2.272 1.1-3.543-1.121-1.351-1.557-1.263-3.759.756l-2.49 2.283.593-5.25.594-5.25h-5.974l.284 10.75m-23.722-7.741c-.342.555-.339 1.905.009 3 .447 1.41.174 1.991-.936 1.991-.862 0-1.567.675-1.567 1.5s.651 1.5 1.448 1.5c1.041 0 1.532 1.473 1.75 5.25.258 4.483.594 5.25 2.302 5.25 1.708 0 2.044-.767 2.302-5.25.167-2.888.729-5.25 1.25-5.25.522 0 .948-.675.948-1.5s-.45-1.5-1-1.5-1-1.35-1-3c0-2.514-.395-3-2.441-3-1.343 0-2.722.454-3.065 1.009m-33.16 10.241c.756 6.484 2.971 8.583 9.054 8.583h4.373l.684-6.051c.727-6.425.006-8.204-3.089-7.618-1.313.249-1.94 1.373-2.145 3.844-.453 5.492-.97 6.437-2.723 4.982-.849-.705-1.488-2.899-1.488-5.112 0-3.524-.241-3.878-2.639-3.878-2.595 0-2.629.088-2.027 5.25m16.241-3.585c-.316.824-.575 3.937-.575 6.917 0 5.113.141 5.418 2.5 5.418 2.237 0 2.5-.408 2.5-3.878 0-2.213.639-4.407 1.488-5.112 1.753-1.455 2.27-.51 2.723 4.982.293 3.539 2.903 5.294 4.901 3.296 1.346-1.346-.646-10.474-2.597-11.9-2.434-1.781-10.226-1.583-10.94.277M134 126.93c0 6.877 2.196 9.09 8.72 8.79l4.78-.22.296-6.75c.291-6.643.255-6.75-2.25-6.75-2.29 0-2.546.39-2.546 3.878 0 2.213-.639 4.407-1.488 5.112-1.754 1.456-2.27.51-2.723-4.99-.228-2.76-.764-3.568-2.539-3.82-2.079-.295-2.25.065-2.25 4.75m121.119 9.57c-.302 12.047-6.371 35.232-12.228 46.714l-1.931 3.784 3.331 8.868c1.832 4.877 5.328 12.359 7.77 16.626l4.439 7.76.253-38.376c.14-21.107-.143-41.076-.628-44.376l-.881-6-.125 5M41.294 157.754c-3.413 5.904-5.888 11.043-5.5 11.42.388.376 1.949.992 3.469 1.367 2.446.604 2.888.325 3.848-2.429.884-2.536 1.632-3.112 4.039-3.112 2.383 0 3.156.58 4 3 1.055 3.026 3.097 3.763 5.758 2.078 1.151-.729.511-2.916-3.5-11.955-2.699-6.085-5.133-11.072-5.408-11.083-.275-.011-3.293 4.81-6.706 10.714m45 .04c-3.413 5.882-5.888 11.003-5.5 11.38.388.376 1.949.992 3.469 1.367 2.446.604 2.888.325 3.848-2.429.863-2.477 1.653-3.112 3.866-3.112 2.165 0 3.064.684 4.062 3.093 1.101 2.659 1.669 3.015 4.051 2.539 1.622-.324 2.924-.09 3.142.565.228.683 1.4.861 3.008.458 2.021-.508 2.707-1.374 2.947-3.722l.313-3.06 4 3.036c4.553 3.455 5.744 3.707 7.505 1.585 1.032-1.244.836-1.832-1.128-3.381-7.17-5.658-7.47-6.037-5.817-7.362.858-.688 2.853-2.281 4.434-3.539l2.874-2.289-2.174-2.174-2.174-2.174-4.01 3.915-4.01 3.916v-3.703c0-3.448-.207-3.703-3-3.703h-3l-.016 9.75-.016 9.75-4.515-9.981c-2.483-5.49-4.839-10.305-5.234-10.7-.396-.396-3.512 4.093-6.925 9.975m53.013-.025c-3.406 5.902-5.881 11.037-5.5 11.41.381.374 1.936.987 3.456 1.362 2.446.604 2.888.325 3.848-2.429.884-2.536 1.632-3.112 4.039-3.112 2.383 0 3.156.58 4 3 1.055 3.026 3.097 3.763 5.758 2.078 1.151-.729.511-2.916-3.5-11.955-2.699-6.085-5.133-11.068-5.408-11.075-.275-.006-3.287 4.818-6.693 10.721m44.987.025c-3.413 5.882-5.888 11.003-5.5 11.38.388.376 1.949.992 3.469 1.367 2.446.604 2.888.325 3.848-2.429.884-2.536 1.632-3.112 4.039-3.112 2.404 0 3.155.577 4.034 3.099.942 2.701 1.438 3.027 3.878 2.539 1.646-.33 2.951-.1 3.17.559.228.683 1.4.861 3.008.458 2.021-.508 2.707-1.374 2.947-3.722l.313-3.06 4 3.036c4.553 3.455 5.744 3.707 7.505 1.585 1.032-1.244.836-1.832-1.128-3.381-7.17-5.658-7.47-6.037-5.817-7.362.858-.688 2.853-2.281 4.434-3.539l2.874-2.289-2.102-2.102-2.102-2.102-3.832 3.627-3.832 3.627-.31-3.487c-.278-3.12-.619-3.486-3.25-3.486H201l-.016 9.75-.016 9.75-4.515-9.981c-2.483-5.49-4.839-10.305-5.234-10.7-.396-.396-3.512 4.093-6.925 9.975M1.116 183.5c-.048 32.646.091 35.814 1.492 34 3.193-4.137 6.585-10.59 9.943-18.918l3.468-8.601-2.884-5.74C9.16 176.332 5.172 165.025 2.996 155.5l-1.827-8-.053 36M74 155.721v6.721l-6.473-6.415c-3.56-3.528-6.668-6.215-6.907-5.971-.239.244-.759 5.057-1.156 10.694L58.742 171h3.077c2.993 0 3.085-.138 3.379-5.09l.302-5.091 5.866 5.141c3.226 2.828 6.151 4.858 6.5 4.511 1.138-1.131 1.724-19.923.646-20.706-.556-.404-1.799-.741-2.762-.75-1.495-.013-1.75.966-1.75 6.706m98-.721c0 3.3-.324 6-.721 6-.397 0-3.31-2.562-6.474-5.693s-5.939-5.493-6.167-5.25c-.228.244-.739 5.056-1.134 10.693l-.72 10.25h3.056c2.968 0 3.064-.146 3.358-5.09l.302-5.091 5.808 5.091c3.195 2.799 6.19 5.09 6.656 5.09 1.25 0 1.778-20.347.551-21.235-.558-.404-1.802-.741-2.765-.75-1.474-.013-1.75.932-1.75 5.985m-125.475 2.96c-.848 1.372-.097 2.402 1.38 1.894.606-.208.683-.914.188-1.711-.625-1.006-1.03-1.053-1.568-.183m45 0c-.848 1.372-.097 2.402 1.38 1.894.606-.208.683-.914.188-1.711-.625-1.006-1.03-1.053-1.568-.183m53.113.54c-.347.905-.005 1.5.862 1.5s1.209-.595.862-1.5c-.317-.825-.705-1.5-.862-1.5-.157 0-.545.675-.862 1.5m44.887-.54c-.848 1.372-.097 2.402 1.38 1.894.606-.208.683-.914.188-1.711-.625-1.006-1.03-1.053-1.568-.183M124 160c0 1.87.493 2.079 4.25 1.807 2.974-.215 4.25-.757 4.25-1.807 0-1.05-1.276-1.592-4.25-1.807-3.757-.272-4.25-.063-4.25 1.807M24 187.448c0 1.217 1.203 1.552 5.583 1.552 7.344 0 6.995-2.369-.412-2.802-4.137-.242-5.171.008-5.171 1.25m15 .052c0 1.152 1.278 1.5 5.5 1.5 4.222 0 5.5-.348 5.5-1.5 0-1.152-1.278-1.5-5.5-1.5-4.222 0-5.5.348-5.5 1.5m15 0c0 1.152 1.278 1.5 5.5 1.5 4.222 0 5.5-.348 5.5-1.5 0-1.152-1.278-1.5-5.5-1.5-4.222 0-5.5.348-5.5 1.5m15 0c0 1.152 1.278 1.5 5.5 1.5 4.222 0 5.5-.348 5.5-1.5 0-1.152-1.278-1.5-5.5-1.5-4.222 0-5.5.348-5.5 1.5m15 0c0 1.152 1.278 1.5 5.5 1.5 4.222 0 5.5-.348 5.5-1.5 0-1.152-1.278-1.5-5.5-1.5-4.222 0-5.5.348-5.5 1.5m16-.052c0 1.217 1.203 1.552 5.583 1.552 7.344 0 6.995-2.369-.412-2.802-4.137-.242-5.171.008-5.171 1.25m15 .052c0 1.152 1.278 1.5 5.5 1.5 4.222 0 5.5-.348 5.5-1.5 0-1.152-1.278-1.5-5.5-1.5-4.222 0-5.5.348-5.5 1.5m15 0c0 1.152 1.278 1.5 5.5 1.5 4.222 0 5.5-.348 5.5-1.5 0-1.152-1.278-1.5-5.5-1.5-4.222 0-5.5.348-5.5 1.5m15 0c0 1.152 1.278 1.5 5.5 1.5 4.222 0 5.5-.348 5.5-1.5 0-1.152-1.278-1.5-5.5-1.5-4.222 0-5.5.348-5.5 1.5m15 0c0 1.152 1.278 1.5 5.5 1.5 4.222 0 5.5-.348 5.5-1.5 0-1.152-1.278-1.5-5.5-1.5-4.222 0-5.5.348-5.5 1.5m15.667-.833c-1.659 1.659-.262 2.333 4.833 2.333 4.222 0 5.5-.348 5.5-1.5 0-1.126-1.204-1.5-4.833-1.5-2.659 0-5.134.3-5.5.667M191 187.5c0 1.152 1.278 1.5 5.5 1.5 4.222 0 5.5-.348 5.5-1.5 0-1.152-1.278-1.5-5.5-1.5-4.222 0-5.5.348-5.5 1.5m15 0c0 1.152 1.278 1.5 5.5 1.5 4.222 0 5.5-.348 5.5-1.5 0-1.152-1.278-1.5-5.5-1.5-4.222 0-5.5.348-5.5 1.5m15 0c0 1.152 1.278 1.5 5.5 1.5 4.222 0 5.5-.348 5.5-1.5 0-1.152-1.278-1.5-5.5-1.5-4.222 0-5.5.348-5.5 1.5m-66.054 9.601c-1.437 2.685.584 5.534 2.687 3.789 1.811-1.504 1.744-4.532-.118-5.246-.881-.338-1.926.255-2.569 1.457m-7.696 1.119c-1.238.597-2.25 1.467-2.25 1.933 0 1.405 1.642.961 4.139-1.12 2.573-2.143 1.673-2.53-1.889-.813m-17.583 5.447c-1.05 1.05-.779 4.146.429 4.892 1.556.962 4.297-2.093 3.572-3.981-.618-1.612-2.803-2.11-4.001-.911m-18.806 2.3c-1.299 1.081-2.045 1.981-1.658 2 1.397.066 5.797-2.308 5.797-3.128 0-1.397-1.646-.949-4.139 1.128m34.642 2.024c-.647 2.038.024 4.009 1.365 4.009 1.954 0 4.194-2.675 3.579-4.276-.903-2.355-4.168-2.178-4.944.267m73.472 8.627c-19.254 19.622-43.986 32.511-70.89 36.942-13.459 2.217-36.664 1.535-48.585-1.428-24.456-6.079-43.313-16.377-61.072-33.355l-9.384-8.972-6.18 4.127C16.706 218.044 2.983 225 1.028 225 .368 225 0 230.549 0 240.504v15.504l128.25-.254 128.25-.254.276-15.943c.152-8.769.001-15.667-.336-15.331-1.01 1.011-13.435-5.016-21.22-10.292-4.004-2.714-7.615-4.934-8.025-4.934-.41 0-4.109 3.428-8.22 7.618m-71.308-3.951c-1.456 1.456-.535 5.248 1.816 7.478 3.495 3.315 3.149 4.574-1.934 7.043-2.448 1.19-4.221 2.534-3.941 2.987.741 1.199 8.176 1.011 10.565-.268 1.477-.79 2.344-.79 3.134 0 1.295 1.295 9.603 1.436 11.56.196.795-.503 1.654-3.642 2.054-7.506.57-5.509.404-6.898-.973-8.144-2.516-2.277-4.41.579-4.068 6.135.255 4.144.115 4.412-2.304 4.412-2.511 0-2.576-.17-2.576-6.674v-6.675L158.5 214c-1.375 1.292-2.514 3.283-2.53 4.424-.031 2.056-.041 2.057-1.137.076-1.394-2.521-4.97-6.5-5.841-6.5-.362 0-.959.3-1.325.667m-52.276 1.51c-.401.647-.765 4.585-.809 8.75L94.5 230.5H91c-3.075 0-3.538-.334-3.816-2.75-.418-3.627-1.638-3.481-3.241.387-1.091 2.633-1.065 3.557.161 5.75 1.182 2.115 2.312 2.669 5.928 2.907 7.239.476 8.379-1.011 8.968-11.697.322-5.841.105-9.608-.61-10.583-1.336-1.821-2.034-1.9-2.999-.337m7.359.536c-1.291 1.434-1.75 3.664-1.75 8.501v6.556l18.196.738 18.196.738 2.299-2.873c2.781-3.476 2.859-4.565.48-6.718-2.115-1.914-5.413-2.131-8.366-.551-1.924 1.03-2.03.881-1.576-2.213.305-2.074-.033-3.837-.899-4.704-2.38-2.38-4.33.345-4.33 6.052 0 4.691-.137 4.958-2.25 4.391-1.237-.331-2.556-.609-2.93-.616-.375-.008-.825-1.026-1-2.264-.482-3.392-4.134-3.438-6.771-.085-1.2 1.526-3.165 2.788-4.366 2.804-1.944.028-2.238-.612-2.683-5.835-.484-5.673-.557-5.802-2.25-3.921m8.793-.782c-.317.512-.118 1.213.441 1.559 1.193.737 3.016-.199 3.016-1.549 0-1.217-2.707-1.225-3.457-.01M133 224c-1.207.78-1.049.972.809.985 1.288.008 2.036-.427 1.691-.985-.743-1.202-.639-1.202-2.5 0M.405 240.5c.001 8.8.154 12.266.34 7.703.185-4.564.184-11.764-.003-16-.187-4.237-.338-.503-.337 8.297m165.845-4.28c-1.943.938-3.135 2.78-1.797 2.78 1.276 0 5.547-2.434 5.547-3.161 0-1.07-.937-.975-3.75.381m-75.389 7.747c-1.299 1.081-2.045 1.981-1.658 2 1.397.066 5.797-2.308 5.797-3.128 0-1.397-1.646-.949-4.139 1.128"/><path fill="#1976D2" fill-opacity=".429" fill-rule="evenodd" d="M80.414 2.866C45.164 16.777 17.442 44.237 4.038 78.52.176 88.4.003 89.32.07 99.675L.141 110.5l1.892-9C12.523 51.606 51.742 12.236 101.5 1.652l7-1.489L98 .116c-9.207-.041-11.373.297-17.586 2.75M155 1.967c52.774 11.338 93.233 55.919 100.311 110.533.214 1.65.457-2.434.539-9.075.13-10.454-.181-13.048-2.315-19.322-12.383-36.409-43.256-68.405-78.204-81.051C167.916.369 165.662.009 156.698.07L146.5.141l8.5 1.826m-2.312 9.679c-1.472 1.471-.698 4.503 1.062 4.164.963-.186 1.75-1.194 1.75-2.24 0-1.99-1.631-3.106-2.812-1.924m-7.703 2.4c-1.367 1.05-2.035 1.905-1.485 1.9 1.323-.013 4.978-2.802 4.412-3.367-.243-.243-1.56.417-2.927 1.467M153 14c0 .55.45 1 1 1s1-.45 1-1-.45-1-1-1-1 .45-1 1m-56.604 4.75c-.298.962-.963 2.538-1.477 3.5-1.104 2.065-.117 2.216 2.331.358 1.883-1.429 2.418-5.608.719-5.608-.568 0-1.275.788-1.573 1.75M143.2 22.2c-2.43 2.43-.877 5.381 2.21 4.196 2.126-.816 2.025-2.376-.16-2.475-1.045-.047-1.247-.282-.5-.583 1.378-.556 1.721-2.338.45-2.338-.44 0-1.34.54-2 1.2m17.359.332c-1.068.807-1.491 1.468-.941 1.468.55 0 1.873-.661 2.941-1.468 1.067-.808 1.491-1.468.941-1.468-.55 0-1.874.66-2.941 1.468m-25.871 3.114c-1.472 1.471-.698 4.503 1.062 4.164.963-.186 1.75-1.194 1.75-2.24 0-1.99-1.631-3.106-2.812-1.924m-28.827 2.37-2.361 2.016 2.75-1.176c1.513-.648 2.75-1.555 2.75-2.017 0-1.247-.535-1.047-3.139 1.177m-12.45 1.129c-.602.974.55 1.465 3.921 1.672 1.763.109 2.686-.264 2.445-.986-.425-1.274-5.655-1.837-6.366-.686m58.765.079c-.647.647-1.176 1.986-1.176 2.976 0 2.444-.904 2.267-4.114-.809-1.498-1.435-3.21-2.309-3.805-1.941-2.031 1.255-1.085 4.411 1.976 6.59 2.702 1.925 2.892 2.367 1.641 3.819-.779.902-1.662 2.654-1.963 3.891-.504 2.069-.202 2.25 3.75 2.25 3.793 0 4.375-.305 4.95-2.596.365-1.456.152-3.196-.485-3.964-.872-1.051-.65-2.052.957-4.309 2.441-3.429 2.577-4.484.769-5.985-.966-.802-1.641-.781-2.5.078M161.2 31.2c-.714.714-1.187 4.057-1.167 8.25l.034 7.05 1.966-2.361c1.466-1.759 1.967-3.861 1.967-8.25 0-5.923-.585-6.904-2.8-4.689m-65.45 6.254c-7.482 6.872-5.068 8.243 14.934 8.48 14.237.169 15.251.056 16.25-1.811 1.512-2.825 1.425-2.961-2.107-3.31-4.056-.4-5.082-2.813-1.196-2.813 2.586 0 2.674-.123 1.168-1.63-2.182-2.182-6.05-1.137-7.785 2.103-1.993 3.724-5.88 3.448-6.664-.473-.33-1.65-1.005-3-1.5-3-.495 0-1.17 1.35-1.5 3-.5 2.499-1.081 3-3.475 3-2.619 0-2.875-.312-2.875-3.5 0-1.925-.338-3.498-.75-3.495-.412.002-2.437 1.554-4.5 3.449m37.856-.869c-.39 1.017.05 2.193 1.127 3.01 1.62 1.23 1.548 1.344-.876 1.373-2.387.029-3.857 1.597-3.857 4.114 0 .505 2.016.918 4.481.918 3.986 0 4.553-.286 5.13-2.587 1.054-4.197-4.564-10.584-6.005-6.828M96 41.059c0 .582.45.781 1 .441s1-.816 1-1.059S97.55 40 97 40s-1 .477-1 1.059m8.5 9.775c-1.186 1.186-.294 1.833 2.528 1.833 1.665 0 2.877-.452 2.693-1.005-.351-1.053-4.36-1.689-5.221-.828M120 53.05l-2.5 2.005 2.75-1.188c1.513-.653 2.75-1.566 2.75-2.028 0-1.14-.139-1.084-3 1.211M24 64c0 .55 2.25 1 5 1s5-.45 5-1-2.25-1-5-1-5 .45-5 1m15 0c0 .55 2.25 1 5 1s5-.45 5-1-2.25-1-5-1-5 .45-5 1m15 0c0 .55 2.475 1 5.5 1s5.5-.45 5.5-1-2.475-1-5.5-1-5.5.45-5.5 1m15 0c0 .55 2.475 1 5.5 1s5.5-.45 5.5-1-2.475-1-5.5-1-5.5.45-5.5 1m16 0c0 .55 2.25 1 5 1s5-.45 5-1-2.25-1-5-1-5 .45-5 1m15 0c0 .55 2.25 1 5 1s5-.45 5-1-2.25-1-5-1-5 .45-5 1m15 0c0 .55 2.25 1 5 1s5-.45 5-1-2.25-1-5-1-5 .45-5 1m15 0c0 .55 2.475 1 5.5 1s5.5-.45 5.5-1-2.475-1-5.5-1-5.5.45-5.5 1m15 0c0 .55 2.475 1 5.5 1s5.5-.45 5.5-1-2.475-1-5.5-1-5.5.45-5.5 1m16 0c0 .55 2.25 1 5 1s5-.45 5-1-2.25-1-5-1-5 .45-5 1m15 0c0 .55 2.25 1 5 1s5-.45 5-1-2.25-1-5-1-5 .45-5 1m15 0c0 .55 2.25 1 5 1s5-.45 5-1-2.25-1-5-1-5 .45-5 1m15 0c0 .55 2.475 1 5.5 1s5.5-.45 5.5-1-2.475-1-5.5-1-5.5.45-5.5 1m15 0c0 .55 2.475 1 5.5 1s5.5-.45 5.5-1-2.475-1-5.5-1-5.5.45-5.5 1M107.763 87.757c-2.055 3.709-4.726 8.422-5.936 10.474-2.463 4.179-2.422 4.331 1.438 5.299 2.447.615 2.884.34 3.846-2.418.875-2.51 1.641-3.112 3.961-3.112 2.185 0 3.25.722 4.428 3 1.496 2.893 4.737 4.043 5.934 2.106.556-.899-8.499-22.112-9.433-22.099-.276.003-2.183 3.041-4.238 6.75m78 0c-2.055 3.709-4.726 8.422-5.936 10.474-2.463 4.179-2.422 4.331 1.438 5.299 2.447.615 2.884.34 3.846-2.418.875-2.51 1.641-3.112 3.961-3.112 2.185 0 3.25.722 4.428 3 1.492 2.886 4.737 4.044 5.928 2.117.547-.885-8.487-22.046-9.428-22.084-.275-.011-2.182 3.015-4.237 6.724M57.687 82.671c-3.102.523-3.034-.552-1.049 16.579l.55 4.75 5.656-.004c9.56-.006 15.224-5.491 13.755-13.319-.976-5.202-4.613-7.968-10.841-8.245-2.892-.129-6.524-.021-8.071.239m78 .051c-3.103.467-3.035-.612-1.049 16.528l.55 4.75h5.455c6.52 0 10.777-1.979 12.84-5.967 2.038-3.94 1.905-6.885-.487-10.808-2.934-4.812-7.444-5.985-17.309-4.503M81.4 86.4c-2.641 2.641-3.4 4.225-3.4 7.1 0 4.927 5.28 10.5 9.95 10.5C94.586 104 99 99.547 99 92.853 99 88.283 93.37 83 88.5 83c-2.875 0-4.459.759-7.1 3.4m78 0c-4.73 4.73-4.73 9.47 0 14.2 7.074 7.074 17.6 2.441 17.6-7.747 0-4.57-5.63-9.853-10.5-9.853-2.875 0-4.459.759-7.1 3.4m-97.15 1.262c-1.304.527-1.642 5.275-.64 9.01.5 1.866 1.096 2.095 4.236 1.628C69.945 97.691 72 95.71 72 92.366c0-3.768-5.497-6.42-9.75-4.704m78 0c-1.276.515-1.722 6.943-.672 9.681.745 1.94 7.371 1.106 9.172-1.156 3.921-4.923-2.203-11.066-8.5-8.525M87.228 89.23c-4.304 2.075-3.766 8.83.82 10.285 5.558 1.764 9.529-6.597 4.729-9.958-2.55-1.787-2.523-1.785-5.549-.327m78.052-.21c-4.347 1.749-3.814 9.041.768 10.495 5.558 1.764 9.529-6.597 4.729-9.958-2.51-1.759-2.47-1.755-5.497-.537m-54.675 2.568c-.855 2.228-.787 2.412.895 2.412.825 0 1.5-.648 1.5-1.441 0-2.116-1.693-2.802-2.395-.971m78.034-.894c-1.195 1.195-.645 3.306.861 3.306.825 0 1.5-.648 1.5-1.441 0-1.671-1.427-2.798-2.361-1.865M123 93.5c0 1.282.877 1.552 4.25 1.307 2.338-.169 4.25-.757 4.25-1.307 0-.55-1.912-1.138-4.25-1.307-3.373-.245-4.25.025-4.25 1.307m26.592 21.351c-.29.469-.248 5.419.092 11 .547 8.983.831 10.149 2.467 10.149 1.306 0 1.849-.735 1.849-2.5 0-3.068.703-3.128 3.699-.313 1.862 1.749 2.575 1.936 3.564.933.985-.999.599-1.827-1.9-4.072l-3.138-2.819 2.575-2.574c2.29-2.291 2.384-2.647.85-3.236-1.034-.396-2.511.05-3.687 1.115-1.926 1.743-1.963 1.68-1.963-3.379 0-4.436-.271-5.155-1.941-5.155-1.068 0-2.178.383-2.467.851M126 118.93c0 1.689-.45 3.07-1 3.07s-1 .675-1 1.5.377 1.5.838 1.5c.461 0 1.249 2.562 1.75 5.694.87 5.43.993 5.612 2.662 3.929 1.038-1.048 1.75-3.283 1.75-5.494 0-2.051.559-4.288 1.242-4.971.916-.916.942-1.427.1-1.95-.627-.389-1.298-1.833-1.491-3.208-.238-1.695-1.076-2.603-2.601-2.82-1.914-.271-2.25.139-2.25 2.75m-33 7.925c0 5.319 1.716 8.145 4.946 8.145.992 0 3.21.281 4.929.625l3.125.625v-7.125c0-6.458-.187-7.125-2-7.125-1.642 0-2.003.672-2.015 3.75-.032 7.716-4.626 8.66-5.175 1.063-.227-3.145-.779-4.385-2.06-4.628-1.478-.28-1.75.447-1.75 4.67m16 1.084v6.811c0 .412.787.75 1.75.75 1.333 0 1.869-1.071 2.25-4.5.407-3.667.87-4.5 2.5-4.5s2.093.833 2.5 4.5c.667 6.007 3.368 6.306 3.799.421.403-5.498-1.9-8.042-8.049-8.889l-4.75-.655v6.062m25.667-5.272c-1.354 1.354-.627 8.158 1.083 10.129 1.05 1.211 3.593 2.271 6.357 2.651l4.608.633.578-6.29c.603-6.568-.091-8.465-2.726-7.454-1.067.409-1.567 1.898-1.567 4.664 0 2.803-.497 4.253-1.601 4.677-2.13.818-3.365-1.345-3.384-5.927-.014-3.53-1.517-4.914-3.348-3.083m119.599 24.97c-1.431 10.508-4.04 19.538-9.005 31.167-3.334 7.811-3.472 8.554-2.31 12.5 1.671 5.673 8.186 19.532 11.42 24.291l2.629 3.869-.185-12.982c-.102-7.14-.35-10.619-.552-7.732-.24 3.424-.815 5.25-1.655 5.25-1.37 0-2.61-2.308-5.793-10.785l-1.985-5.285 3.516-8.715c1.933-4.793 3.819-9.949 4.191-11.458.372-1.509 1.078-2.495 1.57-2.191 1.001.619 1.021-19.368.023-24.018-.485-2.263-.92-.843-1.864 6.089M41.497 158.092c-3.143 5.55-5.328 10.449-4.855 10.887.472.438 1.811 1.083 2.976 1.434 1.696.511 2.368.035 3.371-2.387 1.74-4.201 6.308-4.286 8.443-.157 1.196 2.313 1.985 2.774 4.068 2.376 1.421-.272 2.452-.829 2.292-1.239-2.298-5.863-9.452-20.975-9.937-20.988-.354-.01-3.215 4.523-6.358 10.074m44.969-.032c-3.263 5.712-5.361 10.418-4.856 10.888.489.455 1.853 1.118 3.031 1.472 1.743.526 2.337.082 3.198-2.387.863-2.476 1.613-3.033 4.083-3.033 2.321 0 3.373.669 4.51 2.869 1.196 2.313 1.985 2.774 4.068 2.376 1.421-.272 2.452-.829 2.292-1.239-2.297-5.862-9.452-20.975-9.936-20.988-.354-.01-3.23 4.509-6.39 10.042m53.093.008c-3.264 5.643-5.436 10.428-4.941 10.887.485.451 1.835 1.107 3 1.458 1.696.511 2.368.035 3.371-2.387 1.74-4.201 6.308-4.286 8.443-.157 1.196 2.313 1.985 2.774 4.068 2.376 1.421-.272 2.452-.861 2.292-1.31-1.358-3.794-9.415-20.902-9.85-20.917-.308-.01-3.18 4.513-6.383 10.05m44.938.024c-3.143 5.55-5.328 10.449-4.855 10.887.472.438 1.811 1.083 2.976 1.434 1.696.511 2.368.035 3.371-2.387 1.74-4.201 6.308-4.286 8.443-.157 1.196 2.313 1.985 2.774 4.068 2.376 1.421-.272 2.452-.829 2.292-1.239-2.298-5.863-9.452-20.975-9.937-20.988-.354-.01-3.215 4.523-6.358 10.074M104 160v11h2.5c2.199 0 2.5-.429 2.5-3.567v-3.567l4.458 3.653c4.11 3.368 4.621 3.539 6.547 2.19 2.041-1.429 1.971-1.558-2.981-5.501l-5.07-4.037 4.536-3.717c3.588-2.94 4.299-4.003 3.401-5.085-1.711-2.062-3.223-1.676-6.391 1.631-3.705 3.868-4.5 3.779-4.5-.5 0-3.067-.31-3.5-2.5-3.5H104v11m98 0v11h2.5c2.206 0 2.5-.425 2.5-3.62v-3.621l4.477 3.668c3.759 3.08 4.8 3.495 6.5 2.586 1.112-.596 2.023-1.254 2.023-1.463 0-.209-2.26-2.18-5.023-4.379l-5.023-4 4.536-3.717c3.588-2.94 4.299-4.003 3.401-5.085-1.711-2.062-3.223-1.676-6.391 1.631-3.705 3.868-4.5 3.779-4.5-.5 0-3.067-.31-3.5-2.5-3.5H202v11m-128-3.916v6.084l-6.186-5.598c-3.402-3.079-6.495-5.254-6.873-4.834-.377.42-.944 4.656-1.258 9.412-.544 8.243-.47 8.674 1.579 9.21 2.756.721 2.693.817 3.404-5.182l.603-5.096 6.116 5.457 6.115 5.456.662-4.746c.365-2.611.702-7.335.75-10.497.084-5.49-.025-5.75-2.412-5.75-2.393 0-2.5.261-2.5 6.084m98 .024v6.107l-6.158-5.701c-4.473-4.141-6.353-5.333-6.87-4.357-.392.738-.951 5.015-1.241 9.503-.496 7.639-.397 8.194 1.543 8.701 3.147.823 3.726-.033 3.726-5.505v-5.025l6.361 5.584 6.36 5.585.631-5.25c.347-2.888.635-7.613.639-10.5.008-4.936-.141-5.25-2.491-5.25-2.394 0-2.5.259-2.5 6.108M1.259 161c.252 9.921.501 11.027 4.523 20.046 3.774 8.463 4.133 9.898 3.17 12.661-1.018 2.92-1.285 3.058-4.262 2.204-1.747-.501-3.292-.911-3.433-.911-.142 0-.247 5.512-.234 12.25l.022 12.25 3.459-5.5c4.618-7.345 9.817-19.782 9.823-23.5.003-1.65-1.881-7.195-4.186-12.323-2.304-5.128-5.305-13.453-6.669-18.5L.994 150.5l.265 10.5m45.392-3.534c-.762 1.987-.301 2.943 1.152 2.388.511-.195.618-1.221.238-2.281-.657-1.831-.726-1.836-1.39-.107m45 0c-.762 1.987-.301 2.943 1.152 2.388.511-.195.618-1.221.238-2.281-.657-1.831-.726-1.836-1.39-.107m52.988.032c-.893 2.327-.832 2.502.861 2.502 1.683 0 1.873-.863.624-2.834-.675-1.064-.975-.997-1.485.332m45.012-.032c-.762 1.987-.301 2.943 1.152 2.388.511-.195.618-1.221.238-2.281-.657-1.831-.726-1.836-1.39-.107M124 160.56c0 1.187.879 1.486 3.673 1.25 5.275-.445 5.621-2.81.41-2.81-3.033 0-4.083.401-4.083 1.56M24 187.5c0 1.133 1.222 1.5 5 1.5s5-.367 5-1.5-1.222-1.5-5-1.5-5 .367-5 1.5m15 0c0 1.133 1.222 1.5 5 1.5s5-.367 5-1.5-1.222-1.5-5-1.5-5 .367-5 1.5m15.713-.879c-1.712 1.711-.345 2.379 4.87 2.379 4.02 0 5.468-.35 5.172-1.25-.445-1.352-8.872-2.3-10.042-1.129m14.981.018c-1.427 1.427.695 2.361 5.365 2.361 3.725 0 4.941-.369 4.941-1.5 0-1.126-1.204-1.5-4.833-1.5-2.659 0-5.121.288-5.473.639M85 187.5c0 1.133 1.222 1.5 5 1.5s5-.367 5-1.5-1.222-1.5-5-1.5-5 .367-5 1.5m15 0c0 1.133 1.222 1.5 5 1.5s5-.367 5-1.5-1.222-1.5-5-1.5-5 .367-5 1.5m15 0c0 1.133 1.222 1.5 5 1.5s5-.367 5-1.5-1.222-1.5-5-1.5-5 .367-5 1.5m15-.052c0 1.217 1.203 1.552 5.583 1.552 7.344 0 6.995-2.369-.412-2.802-4.137-.242-5.171.008-5.171 1.25m15.694-.809c-1.427 1.427.695 2.361 5.365 2.361 3.725 0 4.941-.369 4.941-1.5 0-1.126-1.204-1.5-4.833-1.5-2.659 0-5.121.288-5.473.639M161 187.5c0 1.133 1.222 1.5 5 1.5s5-.367 5-1.5-1.222-1.5-5-1.5-5 .367-5 1.5m15 0c0 1.133 1.222 1.5 5 1.5s5-.367 5-1.5-1.222-1.5-5-1.5-5 .367-5 1.5m15 0c0 1.133 1.222 1.5 5 1.5s5-.367 5-1.5-1.222-1.5-5-1.5-5 .367-5 1.5m15 0c0 1.3.953 1.547 5.013 1.302 6.682-.403 6.848-2.224.237-2.604-4.278-.247-5.25-.005-5.25 1.302m15.713-.879c-1.712 1.711-.345 2.379 4.87 2.379 4.02 0 5.468-.35 5.172-1.25-.445-1.352-8.872-2.3-10.042-1.129M155 196.986c0 .622.419.873.931.557.512-.317 1.213-.118 1.559.441.345.559-.074 1.016-.931 1.016-.857 0-1.559.483-1.559 1.073 0 .591.787.922 1.75.737.963-.186 1.75-1.225 1.75-2.31s-.787-2.124-1.75-2.31c-.963-.185-1.75.173-1.75.796m-8.139 2.063-2.361 2.05 3.25-1.575c3.198-1.55 4.109-2.524 2.361-2.524-.489 0-1.952.922-3.25 2.049m-17.254 5.533c-1.004 2.617-.703 3.418 1.286 3.418 2.286 0 3.383-2.324 1.829-3.878-1.535-1.535-2.398-1.408-3.115.46m-17.357.638c-1.237.597-2.25 1.477-2.25 1.956 0 .478 1.125.133 2.5-.768 3.668-2.403 3.539-3.015-.25-1.188m18.25.78c.34.55.816 1 1.059 1s.441-.45.441-1-.477-1-1.059-1-.781.45-.441 1m15.605 1.373c-1.485 1.79-.287 4.911 1.606 4.184.799-.306 1.641-.557 1.871-.557.23 0 .418-.45.418-1s-.761-1-1.691-1c-1.475 0-1.443-.188.25-1.468 1.631-1.234 1.681-1.473.313-1.5-.895-.018-2.14.586-2.767 1.341m74.249 8.732c-19.527 20.215-47.593 34.618-74.645 38.306-9.369 1.277-5.229 1.379 50.291 1.24l60.5-.151.276-15.25c.221-12.212.009-15.25-1.063-15.25-2.031 0-18.331-8.537-22.522-11.795-2.03-1.578-4.207-3.168-4.837-3.532-.658-.381-4.065 2.358-8 6.432m-200.156-.152c-4.016 2.633-9.979 5.851-13.25 7.15L1 225.465V256l59.75-.131c35.654-.079 56.971-.454 52.859-.931-28.64-3.324-55.162-15.939-75.422-35.874-4.507-4.435-8.756-8.027-9.441-7.981-.685.046-4.532 2.237-8.548 4.87m128.013-2.764c-1.811 1.811-1.477 3.636 1.144 6.257 4.184 4.184 4.023 5.318-1.137 8.005l-4.718 2.456 3.5.204c1.925.112 4.175.115 5 .006.825-.108 5.1-.292 9.5-.407l8-.21.562-6.5c.371-4.288.152-7.12-.645-8.323-1.71-2.582-2.917-.379-2.917 5.323 0 4.166-.204 4.524-2.75 4.816-2.733.315-2.75.278-2.75-5.75 0-3.336-.36-6.066-.8-6.066-1.862 0-3.203 2.67-3.24 6.45l-.04 4.05-1.992-4c-2.808-5.638-5.17-7.858-6.717-6.311M112 214.5c0 .917.484 1.505 1.075 1.308.591-.197 1.075-.786 1.075-1.308s-.484-1.111-1.075-1.308c-.591-.197-1.075.391-1.075 1.308m14.396-.331c-.442.714-.824 3.331-.849 5.815-.045 4.353-.164 4.527-3.297 4.829-2.658.257-3.25-.04-3.25-1.627 0-2.479-2.286-4.397-4.313-3.619-.862.33-2.279 1.688-3.15 3.017-.969 1.478-2.544 2.416-4.06 2.416-2.336 0-2.477-.314-2.477-5.5 0-3.025-.395-5.5-.878-5.5-2.193 0-3.205 3.174-2.922 9.163l.3 6.337 18.5.234 18.5.234 1.79-2.475c1.39-1.923 1.551-2.921.721-4.472-1.338-2.501-5.186-3.533-7.852-2.106-3.035 1.624-3.428 1.368-2.945-1.917.512-3.493-2.381-7.154-3.818-4.829m-30.954.924c-.407.66-.643 4.538-.524 8.618l.216 7.418-3.817-.315c-3.112-.256-3.877-.74-4.144-2.622-.493-3.478-2.631-2.034-2.976 2.011-.392 4.589 1.791 6.797 6.719 6.797 6.183 0 7.584-2.45 7.584-13.263 0-5.971-.395-9.191-1.158-9.45-.637-.216-1.492.147-1.9.806M132.5 224c-.34.55.309 1 1.441 1 1.132 0 2.059-.45 2.059-1s-.648-1-1.441-1-1.719.45-2.059 1m33.941 12.468c-1.067.808-1.465 1.483-.882 1.5.582.018 1.932-.629 3-1.436 1.067-.808 1.465-1.483.882-1.5-.582-.018-1.932.629-3 1.436m-74.882 7.064c-1.068.807-1.491 1.468-.941 1.468.55 0 1.873-.661 2.941-1.468 1.067-.808 1.491-1.468.941-1.468-.55 0-1.874.66-2.941 1.468"/><path fill="#1976D2" fill-opacity=".57" fill-rule="evenodd" d="M153.936 12.414c1.247 1.511 1.247 1.869 0 2.738-1.227.855-1.218.941.064.591.825-.225 1.5-1.235 1.5-2.243 0-1.008-.675-2.057-1.5-2.329-1.311-.434-1.319-.277-.064 1.243M97.399 17.75c.395.688.216 1.25-.399 1.25s-.84.45-.5 1c.34.55 1.002 1 1.471 1 1.048 0 .737-2.654-.436-3.721-.47-.428-.532-.216-.136.471m46.414 4.933c.721.289 1.584.253 1.916-.079.332-.332-.258-.568-1.312-.525-1.165.048-1.402.285-.604.604M142 24.833c0 1.434 1.136 2.052 2.682 1.459 1.211-.465 1.239-.727.152-1.416-1.71-1.084-2.834-1.101-2.834-.043m-5.98 1.691c.696.838 1.471 1.318 1.723 1.067.693-.694-.716-2.591-1.924-2.591-.664 0-.588.574.201 1.524m-1.287 2.6c.679.684 1.486.991 1.793.683.308-.308-.247-.867-1.233-1.243-1.425-.542-1.54-.428-.56.56M94 30c0 .55.45 1 1 1s1-.45 1-1-.45-1-1-1-1 .45-1 1m4 .059c0 .582.45.781 1 .441s1-.816 1-1.059S99.55 29 99 29s-1 .477-1 1.059m44.358.449c-.516 1.346.151 2.554 2.491 4.507 3.103 2.591 3.152 2.754 1.68 5.577-2.309 4.427-1.945 5.408 2.003 5.408 4.076 0 5.916-2.923 4.204-6.679-.781-1.715-.532-2.765 1.171-4.93 1.966-2.499 2.02-2.893.592-4.32-1.39-1.389-1.681-1.398-2.52-.071-.522.825-.955 2.288-.964 3.25-.021 2.479-.961 2.195-4.685-1.415-2.954-2.863-3.333-2.99-3.972-1.327m19.987.574c-1.662 2.041-2.25 14.092-.621 12.736 1.533-1.277 2.532-6.408 2.103-10.803-.264-2.707-.549-3.078-1.482-1.933M95.75 37.993C93.688 40.116 92 42.264 92 42.766c0 2.071 5.268 2.954 18.84 3.157 12.84.191 14.484.024 15.718-1.605 2.071-2.732 1.783-3.169-2.308-3.508-4.093-.338-5.108-2.117-1.5-2.63 3.545-.503 2.623-2.343-1-1.993-2.229.215-3.56 1.02-4.237 2.563-.734 1.672-1.826 2.25-4.25 2.25-2.842 0-3.263-.333-3.263-2.583 0-1.637-.458-2.421-1.25-2.14-.687.244-1.143 1.406-1.012 2.583.203 1.823-.278 2.14-3.25 2.14-3.32 0-3.488-.169-3.488-3.5 0-1.925-.338-3.47-.75-3.433-.412.036-2.437 1.803-4.5 3.926m38.25-.635c0 .838.45 1.802 1 2.142 1.842 1.139 1.025 2.5-1.5 2.5-1.833 0-2.5.533-2.5 2 0 1.657.667 2 3.883 2 3.182 0 3.993-.407 4.487-2.25.376-1.4-.075-3.17-1.194-4.687-2.185-2.962-4.176-3.775-4.176-1.705m-37.75 2.304c-1.741.703-1.566 2.338.25 2.338.825 0 1.5-.675 1.5-1.5s-.112-1.464-.25-1.421c-.138.043-.812.306-1.5.583M148.5 40c-.34.55.11 1 1 1s1.34-.45 1-1c-.34-.55-.79-1-1-1-.21 0-.66.45-1 1M104 52c0 .55.45 1 1 1s1-.45 1-1-.45-1-1-1-1 .45-1 1m4 0c0 .55.45 1 1 1s1-.45 1-1-.45-1-1-1-1 .45-1 1M24 64c0 .55 2.25 1 5 1s5-.45 5-1-2.25-1-5-1-5 .45-5 1m15.5 0c-.381.616 1.323 1 4.441 1C46.723 65 49 64.55 49 64s-1.998-1-4.441-1c-2.443 0-4.719.45-5.059 1M55 64c0 .55 2.025 1 4.5 1s4.5-.45 4.5-1-2.025-1-4.5-1-4.5.45-4.5 1m15 0c0 .55 2.025 1 4.5 1s4.5-.45 4.5-1-2.025-1-4.5-1-4.5.45-4.5 1m15 0c0 .55 2.25 1 5 1s5-.45 5-1-2.25-1-5-1-5 .45-5 1m15 0c0 .55 2.25 1 5 1s5-.45 5-1-2.25-1-5-1-5 .45-5 1m15 0c0 .55 2.25 1 5 1s5-.45 5-1-2.25-1-5-1-5 .45-5 1m16 0c0 .55 2.025 1 4.5 1s4.5-.45 4.5-1-2.025-1-4.5-1-4.5.45-4.5 1m15 0c0 .55 2.025 1 4.5 1s4.5-.45 4.5-1-2.025-1-4.5-1-4.5.45-4.5 1m15 0c0 .55 2.25 1 5 1s5-.45 5-1-2.25-1-5-1-5 .45-5 1m15 0c0 .55 2.25 1 5 1s5-.45 5-1-2.25-1-5-1-5 .45-5 1m15 0c0 .55 2.25 1 5 1s5-.45 5-1-2.25-1-5-1-5 .45-5 1m16 0c0 .55 2.025 1 4.5 1s4.5-.45 4.5-1-2.025-1-4.5-1-4.5.45-4.5 1m15 0c0 .55 2.025 1 4.5 1s4.5-.45 4.5-1-2.025-1-4.5-1-4.5.45-4.5 1M106 91.626c-3.025 5.28-5.379 9.886-5.231 10.236.148.351 1.358.929 2.688 1.285 2.03.543 2.582.181 3.429-2.25.845-2.423 1.561-2.897 4.381-2.897 2.697 0 3.656.566 4.802 2.832 1.093 2.162 1.925 2.694 3.522 2.25 2.016-.561 1.928-.945-2.496-10.832-2.522-5.638-4.813-10.244-5.091-10.236-.277.008-2.979 4.333-6.004 9.612m78-.065c-3.025 5.25-5.379 9.859-5.231 10.242.148.383 1.358.988 2.688 1.344 2.03.543 2.582.181 3.429-2.25.845-2.423 1.561-2.897 4.381-2.897 2.697 0 3.656.566 4.802 2.832 1.093 2.162 1.925 2.694 3.522 2.25 2.016-.561 1.928-.945-2.496-10.832-2.522-5.638-4.813-10.247-5.091-10.242-.277.004-2.979 4.303-6.004 9.553M56 85.849c0 1.567.293 6.321.652 10.563l.652 7.715 6.598-.676C72.727 102.548 76 99.71 76 92.959c0-3.568-.578-5.29-2.452-7.313-2.235-2.411-3.123-2.646-10-2.646H56v2.849m28.213-1.342c-10.189 4.426-5.335 20.73 5.68 19.08 10.18-1.524 12.018-15.219 2.573-19.166-4.095-1.71-4.12-1.71-8.253.086m49.794 2.243c.004 2.063.297 6.816.651 10.563l.643 6.814 6.6-.675C150.727 102.548 154 99.71 154 92.959c0-3.568-.578-5.29-2.452-7.313-2.235-2.411-3.123-2.646-10-2.646H134l.007 3.75m28.206-2.243c-6.472 2.811-7.598 12.12-2.07 17.122 3.098 2.804 10.001 2.524 13.261-.539 5.381-5.055 3.832-13.84-2.938-16.669-4.095-1.71-4.12-1.71-8.253.086M60.74 87.75c-.209.412-.192 3.112.037 6 .408 5.146.479 5.25 3.597 5.25 6.494 0 10.163-6.32 6.055-10.429-1.593-1.593-8.984-2.219-9.689-.821m78 0c-.209.412-.192 3.112.037 6 .408 5.146.479 5.25 3.597 5.25 6.494 0 10.163-6.32 6.055-10.429-1.593-1.593-8.984-2.219-9.689-.821m-52.517 1.807C81.892 92.59 84.451 100 89.829 100 92.55 100 96 96.646 96 94c0-2.479-3.391-6-5.777-6-.978 0-2.778.701-4 1.557m77.432.272c-3.464 3.827-.86 10.171 4.174 10.171 2.721 0 6.171-3.354 6.171-6 0-2.714-3.475-6-6.345-6-1.29 0-3.09.823-4 1.829m-53.487 1.702c-1.025 2.25-.913 2.469 1.26 2.469 1.899 0 2.277-.411 1.858-2.016-.796-3.041-1.868-3.197-3.118-.453m78 0c-.99 2.172-.887 2.469.853 2.469 1.292 0 1.979-.674 1.979-1.941 0-2.985-1.579-3.279-2.832-.528M124 93.5c0 1.54 2.611 1.97 5.418.893C132.188 93.33 131.122 92 127.5 92c-2.444 0-3.5.452-3.5 1.5m27.25 21.162c-.882.356-1.25 3.424-1.25 10.421 0 9.25.134 9.917 2 9.917 1.504 0 2-.667 2-2.687v-2.687l3.007 2.88c2.337 2.239 3.273 2.614 4.205 1.682.932-.932.43-1.861-2.256-4.171l-3.456-2.971 2.394-1.886c1.438-1.132 2.094-2.37 1.644-3.098-.544-.88-1.405-.596-3.143 1.037-2.634 2.474-2.643 2.458-2.41-4.349.159-4.636-.167-5.124-2.735-4.088M126 120c0 1.717-.535 3.013-1.25 3.03-.694.017-.471.484.5 1.05 1.294.754 1.75 2.31 1.75 5.97 0 3.733.369 4.95 1.5 4.95 1.152 0 1.5-1.278 1.5-5.5 0-3.611.412-5.5 1.2-5.5.933 0 .933-.267 0-1.2-.66-.66-1.2-2.235-1.2-3.5 0-1.633-.58-2.3-2-2.3-1.556 0-2 .667-2 3m-32.753 7.499c.701 6.218 2.048 7.501 7.875 7.501H106v-6c0-5.274-.235-6-1.943-6-1.57 0-2.001.814-2.25 4.25-.255 3.533-.687 4.304-2.557 4.57-2.052.291-2.25-.084-2.25-4.25 0-3.996-.267-4.57-2.13-4.57-1.933 0-2.083.416-1.623 4.499M109 129c0 5.274.235 6 1.943 6 1.57 0 2.001-.814 2.25-4.25.251-3.481.669-4.25 2.307-4.25s2.056.769 2.307 4.25c.256 3.538.656 4.25 2.386 4.25 1.903 0 2.025-.401 1.437-4.75-.77-5.692-2.559-7.25-8.321-7.25H109v6m25.454-1.25c.822 5.725 2.554 7.25 8.237 7.25H147v-6c0-5.274-.235-6-1.943-6-1.57 0-2.001.814-2.25 4.25-.251 3.481-.669 4.25-2.307 4.25s-2.056-.769-2.307-4.25c-.255-3.522-.66-4.25-2.364-4.25-1.882 0-1.998.403-1.375 4.75M41.74 158.274c-4.27 7.483-5.435 10.302-4.5 10.895 2.467 1.567 4.535.788 5.76-2.169.97-2.342 1.868-3 4.096-3 2.158 0 3.23.73 4.404 3 1.467 2.837 5.5 4.304 5.5 2.001 0-1.151-7.929-19.169-8.872-20.161-.346-.364-3.22 3.882-6.388 9.434m44.969-.001c-4.371 7.593-5.474 10.259-4.5 10.878 2.498 1.584 4.561.818 5.791-2.151.97-2.342 1.868-3 4.096-3 2.158 0 3.23.73 4.404 3 1.443 2.79 5.5 4.319 5.5 2.073 0-.95-8.374-19.799-9.099-20.481-.22-.208-3.007 4.149-6.192 9.681m53.031.001c-4.27 7.483-5.435 10.302-4.5 10.895 2.467 1.567 4.535.788 5.76-2.169.97-2.342 1.868-3 4.096-3 2.158 0 3.23.73 4.404 3 1.467 2.837 5.5 4.304 5.5 2.001 0-1.151-7.929-19.169-8.872-20.161-.346-.364-3.22 3.882-6.388 9.434m45 0c-4.27 7.483-5.435 10.302-4.5 10.895 2.467 1.567 4.535.788 5.76-2.169.97-2.342 1.868-3 4.096-3 2.158 0 3.23.73 4.404 3 1.467 2.837 5.5 4.304 5.5 2.001 0-1.151-7.929-19.169-8.872-20.161-.346-.364-3.22 3.882-6.388 9.434m-110.039-2.669c-.318 3.083-.843 5.87-1.166 6.193-.323.323-3.21-2.007-6.415-5.179l-5.828-5.767-.646 4.713c-.355 2.593-.646 6.901-.646 9.575 0 4.193.274 4.86 2 4.86 1.733 0 2-.667 2-5 0-2.75.36-5 .8-5 .441 0 3.386 2.304 6.546 5.121 3.16 2.816 5.887 4.954 6.061 4.75.173-.204.59-4.758.927-10.121.566-9.011.473-9.75-1.221-9.75-1.491 0-1.941 1.047-2.412 5.605M104 160.57c0 10.389.038 10.564 2.25 10.25 1.889-.269 2.198-.842 1.925-3.57-.179-1.787-.015-3.25.366-3.25.38 0 2.835 1.574 5.455 3.497 4.145 3.043 4.926 3.302 6.011 1.994 1.029-1.24.832-1.831-1.13-3.378-7.17-5.658-7.47-6.037-5.817-7.362.858-.688 2.851-2.279 4.429-3.536 2.683-2.136 2.761-2.394 1.196-3.959-1.565-1.564-1.934-1.419-5.679 2.238L109 157.406v-3.703c0-3.283-.283-3.703-2.5-3.703H104v10.57m68.792-5.071c-.251 3.024-.769 5.811-1.15 6.193-.382.381-3.316-1.901-6.52-5.072l-5.826-5.765-.639 5.323c-.352 2.927-.644 7.234-.648 9.572-.008 3.586.303 4.25 1.991 4.25 1.733 0 2-.667 2-5 0-2.75.36-5 .8-5 .441 0 3.386 2.304 6.546 5.121 3.16 2.816 5.888 4.954 6.062 4.75.174-.204.612-4.758.974-10.121.617-9.137.539-9.75-1.238-9.75-1.577 0-1.973.927-2.352 5.499M202 160.57c0 10.389.038 10.564 2.25 10.25 1.886-.268 2.199-.846 1.936-3.57-.173-1.787-.008-3.25.366-3.25s2.824 1.574 5.444 3.497c4.145 3.043 4.926 3.302 6.011 1.994 1.029-1.24.832-1.831-1.13-3.378-7.17-5.658-7.47-6.037-5.817-7.362.858-.688 2.851-2.279 4.429-3.536 2.683-2.136 2.761-2.394 1.196-3.959-1.565-1.564-1.934-1.419-5.679 2.238L207 157.406v-3.703c0-3.283-.283-3.703-2.5-3.703H202v10.57m-155.915-2.729c-1.095 2.046-.538 3.159 1.582 3.159 1.518 0 1.825-3.578.383-4.469-.522-.323-1.406.266-1.965 1.31m45 0c-1.095 2.046-.538 3.159 1.582 3.159 1.518 0 1.825-3.578.383-4.469-.522-.323-1.406.266-1.965 1.31m53 0c-1.095 2.046-.538 3.159 1.582 3.159 1.518 0 1.825-3.578.383-4.469-.522-.323-1.406.266-1.965 1.31m45 0c-1.095 2.046-.538 3.159 1.582 3.159 1.518 0 1.825-3.578.383-4.469-.522-.323-1.406.266-1.965 1.31M124 160c0 .55 1.8 1 4 1s4-.45 4-1-1.8-1-4-1-4 .45-4 1M24 188c0 .55 2.25 1 5 1s5-.45 5-1-2.25-1-5-1-5 .45-5 1m15.5 0c.34.55 2.616 1 5.059 1S49 188.55 49 188s-2.277-1-5.059-1c-3.118 0-4.822.384-4.441 1m15.5 0c0 .55 2.025 1 4.5 1s4.5-.45 4.5-1-2.025-1-4.5-1-4.5.45-4.5 1m15 0c0 .55 2.025 1 4.5 1s4.5-.45 4.5-1-2.025-1-4.5-1-4.5.45-4.5 1m15 0c0 .55 1.998 1 4.441 1 2.443 0 4.719-.45 5.059-1 .381-.616-1.323-1-4.441-1-2.782 0-5.059.45-5.059 1m15 0c0 .55 2.25 1 5 1s5-.45 5-1-2.25-1-5-1-5 .45-5 1m15.5 0c.34.55 2.616 1 5.059 1s4.441-.45 4.441-1-2.277-1-5.059-1c-3.118 0-4.822.384-4.441 1m15.5 0c0 .55 2.025 1 4.5 1s4.5-.45 4.5-1-2.025-1-4.5-1-4.5.45-4.5 1m15 0c0 .55 2.025 1 4.5 1s4.5-.45 4.5-1-2.025-1-4.5-1-4.5.45-4.5 1m15 0c0 .55 1.998 1 4.441 1 2.443 0 4.719-.45 5.059-1 .381-.616-1.323-1-4.441-1-2.782 0-5.059.45-5.059 1m15 0c0 .55 2.25 1 5 1s5-.45 5-1-2.25-1-5-1-5 .45-5 1m15.5 0c.34.55 2.616 1 5.059 1s4.441-.45 4.441-1-2.277-1-5.059-1c-3.118 0-4.822.384-4.441 1m15.5 0c0 .55 2.025 1 4.5 1s4.5-.45 4.5-1-2.025-1-4.5-1-4.5.45-4.5 1m15 0c0 .55 2.025 1 4.5 1s4.5-.45 4.5-1-2.025-1-4.5-1-4.5.45-4.5 1M0 203.139C0 207.463.219 211 .487 211c.269 0 2.032-3.067 3.92-6.815l3.432-6.815-3.92-1.046L0 195.278v7.861m157.02-5.615c.696.838 1.471 1.318 1.723 1.067.693-.694-.716-2.591-1.924-2.591-.664 0-.588.574.201 1.524m-1.287 2.6c.679.684 1.486.991 1.793.683.308-.308-.247-.867-1.233-1.243-1.425-.542-1.54-.428-.56.56m-25.126 3.703c-.341.551-.054 1.231.637 1.511.95.386.891.768-.244 1.571-1.063.752-1.127 1.065-.219 1.076.705.008 1.552-.69 1.883-1.552.711-1.852-1.104-4.149-2.057-2.606m124.031 2.673c.317.825.753 1.5.969 1.5.216 0 .393-.675.393-1.5s-.436-1.5-.969-1.5c-.532 0-.709.675-.393 1.5m-109.2 2.601c-.812 1.312 2.503 2.358 3.695 1.166.665-.665.309-1.18-1.066-1.539-1.136-.297-2.319-.129-2.629.373m-32.895 4.83c-.317.512-.118 1.213.441 1.559.559.345 1.016-.074 1.016-.931 0-1.757-.6-2.015-1.457-.628M148 215.32c0 1.275 1.125 3.298 2.5 4.493 3.675 3.195 3.176 5.453-1.75 7.928l-4.25 2.135 4.55.062c2.503.034 5.09-.478 5.75-1.138.933-.933 1.467-.933 2.4 0 .66.66 3.555 1.2 6.433 1.2 5.935 0 6.113-.241 6.507-8.758.134-2.892-.242-5.744-.835-6.337-1.668-1.668-2.722.862-2.418 5.804l.264 4.291H160v-5.622c0-4.885-.197-5.459-1.5-4.378-.858.712-1.535 3.011-1.582 5.372l-.081 4.128-1.506-3.5c-1.581-3.673-5.1-8-6.505-8-.454 0-.826 1.044-.826 2.32m-52.317-.67c-.375.376-.683 4.222-.683 8.548 0 6.074-.342 7.996-1.502 8.441-2.792 1.071-6.304-.561-7.291-3.387l-.96-2.752-.751 2.824c-1.518 5.713 2.91 9.795 8.975 8.273 3.533-.887 4.363-3.131 4.61-12.454.2-7.595-.706-11.185-2.398-9.493m6.567 1.307c-1.302 2.1-1.695 9.719-.643 12.461.522 1.361 3.101 1.582 18.443 1.582 17.298 0 17.884-.067 19.393-2.223 2.149-3.067 1.957-4.469-.867-6.319-2.203-1.444-2.699-1.446-5.45-.023-4.212 2.178-4.34 2.092-3.962-2.685.258-3.26-.013-4.25-1.164-4.25-1.104 0-1.58 1.384-1.802 5.25-.301 5.225-.318 5.25-3.642 5.25-2.728 0-3.454-.458-3.967-2.5-.395-1.574-1.334-2.5-2.535-2.5-1.05 0-2.794 1.125-3.875 2.5-1.332 1.692-2.954 2.5-5.023 2.5-3.004 0-3.061-.095-3.356-5.529-.265-4.89-.445-5.297-1.55-3.514m117.012 7.946-8.239 7.811 8.377 2.725c4.607 1.498 9.903 3.762 11.768 5.029 3.071 2.087 4.431 2.293 14.362 2.169l10.97-.137.296-5.63c.286-5.43.197-5.655-2.5-6.323-3.872-.96-18.079-8.144-21.961-11.105-1.761-1.343-3.569-2.421-4.018-2.396-.449.025-4.524 3.561-9.055 7.857M24.5 219.162c-1.65 1.109-7.612 4.261-13.25 7.004L1 231.154V242h6.521c5.326 0 7.232-.47 10.397-2.564 4.234-2.802 15.215-6.792 21.664-7.872l4.082-.683-7.158-6.941c-3.936-3.817-7.573-6.907-8.082-6.867-.508.04-2.274.98-3.924 2.089m88.688 4.901c.24.721 1.028 1.509 1.75 1.75.75.25 1.125-.125.875-.875-.241-.722-1.029-1.51-1.75-1.75-.75-.25-1.125.125-.875.875M131.5 224c-.362.585.676 1 2.5 1 1.824 0 2.862-.415 2.5-1-.34-.55-1.465-1-2.5-1s-2.16.45-2.5 1"/></svg>